<?xml version="1.0" encoding="UTF-8" standalone="no"?>
<svg width="32px" height="32px" viewBox="0 0 32 32" version="1.1" xmlns="http://www.w3.org/2000/svg" xmlns:xlink="http://www.w3.org/1999/xlink">
    <!-- Generator: Sketch 3.6.1 (26313) - http://www.bohemiancoding.com/sketch -->
    <title>chat_image_ic</title>
    <desc>Created with Sketch.</desc>
    <defs></defs>
    <g id="Page-1" stroke="none" stroke-width="1" fill="none" fill-rule="evenodd">
        <g id="chat_image_ic" fill="#000000">
            <g id="noun_541_cc" transform="translate(3.000000, 7.000000)">
                <g id="Group">
                    <g id="Group-2" transform="translate(2.495050, 2.712329)">
                        <path d="M5.82178218,1.47945205 L0,12.8219178 L19.960396,12.8219178 L14.970297,5.85205479 L11.9207921,8.46575342 L5.82178218,1.47945205 Z" id="Shape"></path>
                        <ellipse id="Oval" cx="17.4653465" cy="2.07671233" rx="1.94059406" ry="2.03287671"></ellipse>
                    </g>
                </g>
                <path d="M1.04,0.993397683 L1.04,0.993397683 L1.04,17.0066023 C1.04,17.0023986 1.03750061,17 1.03527531,17 L24.9647247,17 C24.9576071,17 24.96,16.9977191 24.96,17.0066023 L24.96,0.993397683 C24.96,0.997601401 24.9624994,1 24.9647247,1 L1.03527531,1 C1.04239287,1 1.04,1.00228091 1.04,0.993397683 L1.04,0.993397683 Z M1.03527531,0 L24.9647247,0 C25.5364915,0 26,0.444946289 26,0.993397683 L26,17.0066023 C26,17.5552407 25.5265266,18 24.9647247,18 L1.03527531,18 C0.463508546,18 0,17.5550537 0,17.0066023 L0,0.993397683 C0,0.444759292 0.4734734,0 1.03527531,0 Z" id="Rectangle-5" stroke="#000000" stroke-width="0.5"></path>
            </g>
        </g>
    </g>
</svg>