<?xml version="1.0" encoding="UTF-8" standalone="no"?>
<svg width="32px" height="32px" viewBox="0 0 32 32" version="1.1" xmlns="http://www.w3.org/2000/svg" xmlns:xlink="http://www.w3.org/1999/xlink">
    <!-- Generator: Sketch 3.6.1 (26313) - http://www.bohemiancoding.com/sketch -->
    <title>chat_send_ic</title>
    <desc>Created with Sketch.</desc>
    <defs></defs>
    <g id="Page-1" stroke="none" stroke-width="1" fill="none" fill-rule="evenodd">
        <g id="chat_send_ic" stroke-width="0.5" stroke="#000000" fill="#000000">
            <g id="noun_125164_cc" transform="translate(2.000000, 7.000000)">
                <g id="Group">
                    <path stroke="currentColor" d="M0.402594595,0.7467 L3.85340541,9.5019 L0.402594595,18.25672 C0.311783784,18.4851 0.538810811,18.7359 0.788540541,18.6447 L27.4191892,9.7983 C27.4418919,9.7755 27.464973,9.7527 27.464973,9.7527 C27.5334595,9.7299 27.5334595,9.7071 27.5334595,9.7071 C27.5561622,9.7071 27.5792432,9.6615 27.5792432,9.6615 C27.6019459,9.5931 27.6019459,9.5931 27.6019459,9.5703 C27.625027,9.5019 27.625027,9.5019 27.625027,9.4791 L27.6019459,9.4107 C27.6019459,9.3651 27.5792432,9.3651 27.5792432,9.3423 L27.5334595,9.2967 C27.5103784,9.2511 27.5103784,9.2511 27.4876757,9.2511 C27.464973,9.2283 27.4191892,9.2055 27.4191892,9.2055 L0.788540541,0.3591 C0.743135135,0.3363 0.720432432,0.3363 0.69772973,0.3363 C0.470702703,0.3363 0.311783784,0.5415 0.402594595,0.7467 Z M1.19718919,1.1343 L25.4436757,9.2055 L4.39827027,9.2055 L1.19718919,1.1343 L1.19718919,1.1343 L1.19718919,1.1343 Z M4.39827027,9.7983 L25.4436757,9.7983 L1.19718919,17.8695 L4.39827027,9.7983 L4.39827027,9.7983 L4.39827027,9.7983 Z" id="Shape"></path>
                </g>
            </g>
        </g>
    </g>
</svg>